<?xml version="1.0" encoding="UTF-8"?>
<svg xmlns="http://www.w3.org/2000/svg" width="135" height="42" viewBox="0 0 135 42" fill="none">
  <path d="M132.785 3.94922C133.099 3.94922 133.399 4.02526 133.689 4.18081C133.978 4.3329 134.204 4.55412 134.37 4.84102C134.536 5.12791 134.617 5.42864 134.617 5.74319C134.617 6.05773 134.536 6.35154 134.374 6.63498C134.211 6.91842 133.985 7.13964 133.696 7.29865C133.406 7.45765 133.103 7.53715 132.785 7.53715C132.467 7.53715 132.164 7.45765 131.874 7.29865C131.585 7.13964 131.359 6.91842 131.197 6.63498C131.034 6.35154 130.953 6.05428 130.953 5.74319C130.953 5.43209 131.034 5.12791 131.2 4.84102C131.366 4.55412 131.592 4.3329 131.881 4.18081C132.171 4.02872 132.471 3.94922 132.785 3.94922ZM132.785 4.30179C132.534 4.30179 132.291 4.36401 132.061 4.48499C131.832 4.60943 131.648 4.78571 131.514 5.0173C131.38 5.24889 131.313 5.49085 131.313 5.74319C131.313 5.99552 131.377 6.23402 131.507 6.46215C131.638 6.69029 131.818 6.86657 132.051 6.99447C132.284 7.12236 132.527 7.18804 132.782 7.18804C133.036 7.18804 133.283 7.12236 133.512 6.99447C133.745 6.86657 133.925 6.69029 134.056 6.46215C134.186 6.23402 134.253 5.99552 134.253 5.74319C134.253 5.49085 134.186 5.24889 134.052 5.0173C133.918 4.78571 133.738 4.60943 133.505 4.48499C133.272 4.36055 133.032 4.30179 132.782 4.30179H132.785ZM131.956 6.70411V4.80299H132.351C132.722 4.80299 132.926 4.80299 132.972 4.80645C133.103 4.81682 133.205 4.84102 133.276 4.8825C133.35 4.92397 133.41 4.98274 133.456 5.06569C133.505 5.14865 133.53 5.23852 133.53 5.33876C133.53 5.47703 133.484 5.59455 133.392 5.69134C133.3 5.78812 133.173 5.85034 133.007 5.87108C133.067 5.89182 133.113 5.91601 133.145 5.94367C133.177 5.96786 133.219 6.01971 133.276 6.08884C133.29 6.10613 133.339 6.18563 133.42 6.32043L133.65 6.70411H133.163L133 6.39648C132.891 6.18908 132.799 6.05773 132.729 6.00588C132.658 5.95404 132.566 5.92638 132.457 5.92638H132.354V6.70757H131.959L131.956 6.70411ZM132.351 5.6222H132.51C132.739 5.6222 132.88 5.61529 132.933 5.59801C132.99 5.58073 133.032 5.54962 133.064 5.50814C133.096 5.46666 133.113 5.41481 133.113 5.36296C133.113 5.31111 133.099 5.26272 133.067 5.22124C133.036 5.17976 132.993 5.14865 132.933 5.13137C132.877 5.11409 132.736 5.10372 132.51 5.10372H132.351V5.6222Z" fill="white"></path>
  <path d="M59.2366 17.4743H55.9574V4.32892H50.2003V5.95352C49.8826 5.68045 49.5473 5.42466 49.1837 5.18961C47.2423 3.9245 45.0715 3.23319 42.7948 2.83914C42.463 2.78038 42.1347 2.6905 41.7394 2.60063C42.5936 1.69846 43.5749 1.10739 44.7256 0.827406C45.3186 0.68223 45.9434 0.658033 46.547 0.543966C46.674 0.51977 46.847 0.364224 46.8682 0.2467C46.9105 0.0254789 46.7199 -0.0160001 46.5258 0.00473944C45.9787 0.0565882 45.4351 0.118807 44.888 0.160286C42.756 0.329658 40.7828 0.958756 38.9791 2.08906C38.8061 2.19967 38.5661 2.26534 38.3614 2.26189C35.5728 2.20658 32.7843 2.1651 30.0275 2.67668C29.2051 2.82877 28.3932 3.04653 27.5743 3.2159C27.0272 3.32997 26.5048 3.61687 25.9012 3.31615C25.5623 3.15023 25.1423 3.10875 24.754 3.08801C23.1515 2.99814 21.5525 3.04308 19.9535 3.2401C18.531 3.41639 17.1402 3.69983 15.7565 4.06622C14.0269 4.52595 12.3785 5.18961 10.8219 6.03302C8.36513 7.3638 6.21195 9.07481 4.43293 11.2179C3.39517 12.4692 2.46331 13.793 1.82088 15.2794C1.34436 16.3855 0.899606 17.5192 0.592513 18.6772C0.29248 19.8006 0.101871 20.9655 0.0171556 22.1234C-0.0499106 23.0187 0.0948112 23.9347 0.190116 24.8368C0.327778 26.1676 0.758413 27.4223 1.3373 28.6218C1.89854 29.7901 2.66804 30.8271 3.57872 31.7638C4.90593 33.1292 6.49434 34.1212 8.25924 34.8229C9.73116 35.4071 11.2737 35.7596 12.8621 35.9636C14.8458 36.2194 16.8296 36.2055 18.8063 36.05C20.6241 35.9083 22.4031 35.5315 24.1292 34.9024C25.9471 34.2387 27.599 33.3124 29.0533 32.0715C31.1147 30.3121 32.5866 28.1206 33.7162 25.701C34.6127 23.7687 35.301 21.7674 35.8446 19.7142C35.9082 19.4757 36.0211 19.4031 36.2753 19.5206C37.3942 20.046 38.0755 20.9551 38.5449 22.0301C39.1238 23.3505 39.3674 24.7642 39.5791 26.1745C39.8262 27.8268 40.0027 29.4928 40.2357 31.1485C40.4122 32.4137 40.7087 33.6477 41.2982 34.7987C42.1065 36.3784 43.3949 37.246 45.2162 37.3566C46.141 37.4119 47.0235 37.2701 47.8742 36.9279C48.9437 36.4993 49.8968 35.9013 50.6698 35.0476C50.6945 35.0199 50.7015 34.9819 50.7263 34.937C50.6592 34.8609 50.5886 34.7849 50.5039 34.6915C50.3274 34.771 50.1791 34.8263 50.0415 34.8989C49.2296 35.3276 48.4248 35.2722 47.6377 34.854C46.9458 34.4876 46.6282 33.8274 46.374 33.1465C45.8481 31.7431 45.7598 30.2567 45.5516 28.7946C45.3221 27.1769 45.0821 25.5662 44.4679 24.0349C43.9032 22.6281 43.0313 21.477 41.6688 20.7235C41.3229 20.5334 40.9699 20.364 40.6169 20.1843C42.9854 20.1117 45.2515 19.7764 47.3871 18.7982C48.4566 18.3073 49.4132 17.7232 50.2109 17.0042V33.1499H55.968V19.1162H59.2472V33.1499H65.0043V4.32892H59.2472V17.4743H59.2366ZM26.2859 4.35658C26.6071 4.23214 26.8754 4.27707 27.1684 4.47064C28.1744 5.13776 28.8133 6.04339 29.0745 7.19789C29.2051 7.78205 29.2757 8.38349 29.3321 8.72915C29.2121 11.8366 28.1144 14.2528 25.9965 16.2023C24.5704 17.5158 22.8585 18.2036 20.8818 18.1034C19.8052 18.0481 18.7675 17.7923 17.9521 17.0388C16.8861 16.0502 16.6566 14.792 16.9108 13.4543C17.3485 11.1315 18.7074 9.32714 20.4476 7.77168C22.1525 6.24733 24.1469 5.17924 26.2859 4.36003V4.35658ZM33.6844 8.75681C33.0561 10.2466 32.4984 11.7675 32.0007 13.3057C31.4077 15.1411 30.9206 17.0042 30.384 18.8569C29.9393 20.3986 29.5228 21.9506 29.0427 23.4818C28.2556 25.9775 27.2778 28.3902 25.7106 30.5402C24.4716 32.2408 22.9185 33.5993 20.9489 34.3943C18.2627 35.4831 15.4636 35.7631 12.608 35.1063C9.62174 34.4185 7.62034 32.6038 6.49787 29.8385C5.59777 27.6194 5.38951 25.3173 5.60836 22.9461C5.77779 21.1279 6.14489 19.3581 6.74495 17.6402C8.11099 13.717 10.2748 10.2846 13.501 7.55392C15.0788 6.21622 16.8508 5.18616 18.831 4.4983C20.79 3.81735 22.802 3.55119 24.8705 3.68254C25.0223 3.69291 25.174 3.72402 25.3258 3.74476C25.3329 3.77933 25.3399 3.81044 25.3505 3.845C25.0293 3.98672 24.7081 4.13535 24.3834 4.27016C21.3477 5.53181 18.7322 7.34998 16.6849 9.90439C15.2694 11.6707 14.2634 13.6444 13.9387 15.8774C13.6845 17.6368 13.8081 19.3823 14.9341 20.8998C15.7742 22.037 16.9249 22.6661 18.3368 22.9322C19.6075 23.1708 20.8289 23.0532 22.0219 22.6454C23.3421 22.196 24.4751 21.4252 25.4705 20.4712C26.9036 19.0989 27.9838 17.4847 28.8027 15.6976C29.6922 13.755 30.2146 11.726 30.1969 9.58293C30.1864 8.13116 29.9146 6.73816 29.0568 5.5249C28.7391 5.07555 28.3085 4.70569 27.9238 4.30473C27.8284 4.20449 27.7084 4.12499 27.5037 3.95907C30.917 2.90481 34.2986 2.68359 37.8143 2.90136C37.7084 3.03271 37.6695 3.09838 37.6166 3.14677C35.8587 4.7126 34.5845 6.62064 33.6879 8.75335L33.6844 8.75681ZM47.0447 10.4436C47.0023 13.4094 45.7775 15.8048 43.3384 17.5745C41.9476 18.5839 40.3486 19.0712 38.6296 19.0816C37.8919 19.0851 37.1542 18.8846 36.4129 18.7774C36.18 18.7429 36.1552 18.6046 36.2011 18.4145C36.3847 17.6264 36.5612 16.8348 36.7447 16.0502C36.9953 14.9994 37.2424 13.9486 37.5072 12.9012C37.8284 11.6327 38.139 10.3572 38.499 9.09901C38.7602 8.18647 39.032 7.27048 39.4097 6.40287C39.8192 5.46268 40.3486 4.57434 40.8534 3.67909C40.9169 3.56502 41.1711 3.46132 41.3017 3.49243C43.416 4.00746 45.2198 4.98913 46.2822 6.93864C46.8717 8.02055 47.08 9.21653 47.0447 10.4505V10.4436Z" fill="white"></path>
  <path d="M75.3188 20.5837L71.8737 4.35156H66.0742L70.7371 22.2152V33.1622H76.5366V22.2152L81.2029 4.35156H79.5863L75.3188 20.5837Z" fill="white"></path>
  <path d="M82.3086 6.02921H85.5878V33.1426H91.3449V6.02921H94.6241V4.33203H82.3086V6.02921Z" fill="white"></path>
  <path d="M105.252 17.4774H101.976V4.33203H96.2188V33.1426H101.976V19.1089H105.252V33.1426H111.012V4.33203H105.252V17.4774Z" fill="white"></path>
  <path d="M122.094 4.33203L119.824 25.2824L117.639 4.33203H112.863V33.1426H114.445V11.0413L117.388 33.1426H120.286L123.23 11.0413V33.1426H128.903V4.33203H122.094Z" fill="white"></path>
  <path d="M60.1385 36.2031V41.8892H59.3125V36.2031H60.1385Z" fill="white"></path>
  <path d="M63.4492 41.8814V36.1953H64.4305C65.7401 37.972 67.6109 40.3121 67.9391 40.8963H67.9568C67.9003 40.16 67.9074 39.2544 67.9074 38.3349V36.1988H68.6769V41.8848H67.752C66.8837 40.7476 64.6141 37.6816 64.194 37.018H64.1764C64.2187 37.7542 64.2187 38.5562 64.2187 39.5655V41.8883H63.4492V41.8814Z" fill="white"></path>
  <path d="M72 36.2031H76.4158V36.8772H72.8189V38.7264H76.1793V39.4143H72.8189V41.8892H72V36.2031Z" fill="white"></path>
  <path d="M79.1562 36.2031H79.9752V41.2083H83.4732L83.3497 41.8892H79.1562V36.2031Z" fill="white"></path>
  <path d="M86.6357 36.1988V39.4238C86.6357 40.9205 87.5358 41.3283 88.4112 41.3283C89.4807 41.3283 90.1196 40.8306 90.1196 39.4238V36.1988H90.9385V39.4168C90.9385 41.2661 89.9572 42.0024 88.3865 42.0024C86.8157 42.0024 85.8203 41.2488 85.8203 39.4791V36.1953H86.6392L86.6357 36.1988Z" fill="white"></path>
  <path d="M98.5017 39.238H95.0178V41.2083H98.8617L98.7488 41.8892H94.1953V36.2031H98.6852V36.8772H95.0213V38.5571H98.5052V39.238H98.5017Z" fill="white"></path>
  <path d="M101.672 41.8814V36.1953H102.653C103.963 37.972 105.834 40.3121 106.162 40.8963H106.179C106.123 40.16 106.13 39.2544 106.13 38.3349V36.1988H106.9V41.8848H105.975C105.106 40.7476 102.837 37.6816 102.417 37.018H102.399C102.441 37.7542 102.441 38.5562 102.441 39.5655V41.8883H101.672V41.8814Z" fill="white"></path>
  <path d="M115.557 40.2157C115.229 41.1939 114.502 42.0027 112.843 42.0027C110.912 42.0027 109.867 40.6823 109.867 39.0473C109.867 37.4124 111.028 36.0781 112.885 36.0781C114.562 36.0781 115.356 36.9596 115.582 37.8963H114.738C114.484 37.2948 114.018 36.7452 112.875 36.7452C111.54 36.7452 110.732 37.7131 110.732 39.0266C110.732 40.3401 111.533 41.3321 112.882 41.3321C113.976 41.3321 114.41 40.8759 114.728 40.2191H115.554L115.557 40.2157Z" fill="white"></path>
  <path d="M122.674 39.238H119.19V41.2083H123.034L122.921 41.8892H118.367V36.2031H122.857V36.8772H119.193V38.5571H122.677V39.238H122.674Z" fill="white"></path>
</svg>
